<mxfile host="app.diagrams.net" modified="2023-06-09T23:06:53.111Z" agent="Mozilla/5.0 (Windows NT 10.0; Win64; x64) AppleWebKit/537.36 (KHTML, like Gecko) Chrome/114.0.0.0 Safari/537.36" etag="XzWpvnDpfs6qYU11VLVk" version="21.3.7" type="github">
  <diagram name="Page-1" id="0kBF7J_kD4KtK5fHcLDo">
    <mxGraphModel dx="2796" dy="1351" grid="1" gridSize="10" guides="1" tooltips="1" connect="1" arrows="1" fold="1" page="1" pageScale="1" pageWidth="827" pageHeight="1169" math="0" shadow="0">
      <root>
        <mxCell id="0" />
        <mxCell id="1" parent="0" />
        <mxCell id="v2RWW2FsGn21mNibex99-113" value="" style="rounded=0;whiteSpace=wrap;html=1;shadow=0;fontSize=18;strokeWidth=4;dashed=1;strokeColor=#808080;" vertex="1" parent="1">
          <mxGeometry x="-160" y="340" width="660" height="130" as="geometry" />
        </mxCell>
        <mxCell id="v2RWW2FsGn21mNibex99-112" value="" style="rounded=0;whiteSpace=wrap;html=1;fontSize=18;shadow=0;strokeWidth=4;dashed=1;strokeColor=#808080;" vertex="1" parent="1">
          <mxGeometry x="-160" y="470" width="660" height="540" as="geometry" />
        </mxCell>
        <mxCell id="v2RWW2FsGn21mNibex99-111" value="" style="rounded=0;whiteSpace=wrap;html=1;fontSize=18;shadow=0;strokeWidth=4;dashed=1;strokeColor=#808080;" vertex="1" parent="1">
          <mxGeometry x="500" y="340" width="480" height="670" as="geometry" />
        </mxCell>
        <mxCell id="v2RWW2FsGn21mNibex99-81" value="" style="rounded=0;whiteSpace=wrap;html=1;fontSize=18;shadow=0;strokeWidth=4;dashed=1;strokeColor=#808080;" vertex="1" parent="1">
          <mxGeometry x="-160" y="20" width="1140" height="320" as="geometry" />
        </mxCell>
        <mxCell id="v2RWW2FsGn21mNibex99-17" value="" style="edgeStyle=orthogonalEdgeStyle;rounded=0;orthogonalLoop=1;jettySize=auto;html=1;fontSize=18;shadow=0;fillColor=#dae8fc;strokeColor=#000000;strokeWidth=1;" edge="1" parent="1" source="v2RWW2FsGn21mNibex99-4" target="v2RWW2FsGn21mNibex99-7">
          <mxGeometry relative="1" as="geometry" />
        </mxCell>
        <mxCell id="v2RWW2FsGn21mNibex99-36" style="edgeStyle=none;rounded=0;orthogonalLoop=1;jettySize=auto;html=1;entryX=0;entryY=0;entryDx=0;entryDy=0;fontSize=18;shadow=0;fillColor=#dae8fc;strokeColor=#000000;strokeWidth=1;" edge="1" parent="1" source="v2RWW2FsGn21mNibex99-4" target="v2RWW2FsGn21mNibex99-8">
          <mxGeometry relative="1" as="geometry" />
        </mxCell>
        <mxCell id="v2RWW2FsGn21mNibex99-4" value="&lt;font style=&quot;font-size: 18px;&quot;&gt;secret.txt&lt;/font&gt;" style="ellipse;whiteSpace=wrap;html=1;aspect=fixed;fillColor=#dae8fc;strokeColor=#000000;fontSize=18;shadow=0;strokeWidth=1;" vertex="1" parent="1">
          <mxGeometry x="40" y="40" width="80" height="80" as="geometry" />
        </mxCell>
        <mxCell id="v2RWW2FsGn21mNibex99-20" value="" style="edgeStyle=none;rounded=0;orthogonalLoop=1;jettySize=auto;html=1;fontSize=18;shadow=0;fillColor=#dae8fc;strokeColor=#000000;strokeWidth=1;" edge="1" parent="1" source="v2RWW2FsGn21mNibex99-5" target="v2RWW2FsGn21mNibex99-11">
          <mxGeometry relative="1" as="geometry" />
        </mxCell>
        <mxCell id="v2RWW2FsGn21mNibex99-22" style="edgeStyle=orthogonalEdgeStyle;rounded=0;orthogonalLoop=1;jettySize=auto;html=1;exitX=1;exitY=1;exitDx=0;exitDy=0;entryX=0.5;entryY=0;entryDx=0;entryDy=0;curved=1;fontSize=18;shadow=0;fillColor=#dae8fc;strokeColor=#000000;strokeWidth=1;" edge="1" parent="1" source="v2RWW2FsGn21mNibex99-5" target="v2RWW2FsGn21mNibex99-12">
          <mxGeometry relative="1" as="geometry">
            <Array as="points">
              <mxPoint x="228" y="150" />
              <mxPoint x="560" y="150" />
            </Array>
          </mxGeometry>
        </mxCell>
        <mxCell id="v2RWW2FsGn21mNibex99-5" value="&lt;font style=&quot;font-size: 18px;&quot;&gt;Pro2.c&lt;/font&gt;" style="ellipse;whiteSpace=wrap;html=1;aspect=fixed;fillColor=#dae8fc;strokeColor=#000000;fontSize=18;shadow=0;strokeWidth=1;" vertex="1" parent="1">
          <mxGeometry x="160" y="40" width="80" height="80" as="geometry" />
        </mxCell>
        <mxCell id="v2RWW2FsGn21mNibex99-6" value="ls" style="whiteSpace=wrap;html=1;aspect=fixed;fillColor=#d5e8d4;strokeColor=#82b366;fontSize=18;shadow=0;strokeWidth=1;" vertex="1" parent="1">
          <mxGeometry x="-80" y="200" width="80" height="80" as="geometry" />
        </mxCell>
        <mxCell id="v2RWW2FsGn21mNibex99-7" value="cat" style="whiteSpace=wrap;html=1;aspect=fixed;fillColor=#d5e8d4;strokeColor=#82b366;fontSize=18;shadow=0;strokeWidth=1;" vertex="1" parent="1">
          <mxGeometry x="40" y="200" width="80" height="80" as="geometry" />
        </mxCell>
        <mxCell id="v2RWW2FsGn21mNibex99-19" style="edgeStyle=none;rounded=0;orthogonalLoop=1;jettySize=auto;html=1;entryX=0.5;entryY=1;entryDx=0;entryDy=0;fontSize=18;shadow=0;fillColor=#dae8fc;strokeColor=#000000;strokeWidth=1;" edge="1" parent="1" source="v2RWW2FsGn21mNibex99-8" target="v2RWW2FsGn21mNibex99-5">
          <mxGeometry relative="1" as="geometry" />
        </mxCell>
        <mxCell id="v2RWW2FsGn21mNibex99-8" value="cp" style="whiteSpace=wrap;html=1;aspect=fixed;fillColor=#d5e8d4;strokeColor=#82b366;fontSize=18;shadow=0;strokeWidth=1;" vertex="1" parent="1">
          <mxGeometry x="160" y="200" width="80" height="80" as="geometry" />
        </mxCell>
        <mxCell id="v2RWW2FsGn21mNibex99-21" value="" style="edgeStyle=none;rounded=0;orthogonalLoop=1;jettySize=auto;html=1;fontSize=18;shadow=0;fillColor=#dae8fc;strokeColor=#000000;strokeWidth=1;" edge="1" parent="1" source="v2RWW2FsGn21mNibex99-9" target="v2RWW2FsGn21mNibex99-11">
          <mxGeometry relative="1" as="geometry" />
        </mxCell>
        <mxCell id="v2RWW2FsGn21mNibex99-9" value="gcc" style="whiteSpace=wrap;html=1;aspect=fixed;fillColor=#d5e8d4;strokeColor=#82b366;fontSize=18;shadow=0;strokeWidth=1;" vertex="1" parent="1">
          <mxGeometry x="280" y="200" width="80" height="80" as="geometry" />
        </mxCell>
        <mxCell id="v2RWW2FsGn21mNibex99-23" value="" style="edgeStyle=none;rounded=0;orthogonalLoop=1;jettySize=auto;html=1;fontSize=18;shadow=0;fillColor=#dae8fc;strokeColor=#000000;strokeWidth=1;" edge="1" parent="1" source="v2RWW2FsGn21mNibex99-10" target="v2RWW2FsGn21mNibex99-12">
          <mxGeometry relative="1" as="geometry" />
        </mxCell>
        <mxCell id="v2RWW2FsGn21mNibex99-54" style="edgeStyle=orthogonalEdgeStyle;rounded=0;orthogonalLoop=1;jettySize=auto;html=1;entryX=0.5;entryY=1;entryDx=0;entryDy=0;curved=1;exitX=1;exitY=1;exitDx=0;exitDy=0;shadow=0;fontSize=18;fillColor=#dae8fc;strokeColor=#000000;strokeWidth=1;" edge="1" parent="1" source="v2RWW2FsGn21mNibex99-10" target="v2RWW2FsGn21mNibex99-13">
          <mxGeometry relative="1" as="geometry">
            <Array as="points">
              <mxPoint x="480" y="320" />
              <mxPoint x="800" y="320" />
            </Array>
          </mxGeometry>
        </mxCell>
        <mxCell id="v2RWW2FsGn21mNibex99-55" style="edgeStyle=none;rounded=0;orthogonalLoop=1;jettySize=auto;html=1;exitX=1;exitY=0;exitDx=0;exitDy=0;entryX=0;entryY=1;entryDx=0;entryDy=0;shadow=0;fontSize=18;fillColor=#dae8fc;strokeColor=#000000;strokeWidth=1;" edge="1" parent="1" source="v2RWW2FsGn21mNibex99-10" target="v2RWW2FsGn21mNibex99-14">
          <mxGeometry relative="1" as="geometry" />
        </mxCell>
        <mxCell id="v2RWW2FsGn21mNibex99-10" value="bash" style="whiteSpace=wrap;html=1;aspect=fixed;fillColor=#d5e8d4;strokeColor=#82b366;fontSize=18;shadow=0;strokeWidth=1;" vertex="1" parent="1">
          <mxGeometry x="400" y="200" width="80" height="80" as="geometry" />
        </mxCell>
        <mxCell id="v2RWW2FsGn21mNibex99-11" value="cc1" style="whiteSpace=wrap;html=1;aspect=fixed;fillColor=#d5e8d4;strokeColor=#82b366;fontSize=18;shadow=0;strokeWidth=1;" vertex="1" parent="1">
          <mxGeometry x="280" y="40" width="80" height="80" as="geometry" />
        </mxCell>
        <mxCell id="v2RWW2FsGn21mNibex99-49" value="" style="edgeStyle=none;rounded=0;orthogonalLoop=1;jettySize=auto;html=1;shadow=0;fontSize=18;fillColor=#dae8fc;strokeColor=#000000;strokeWidth=1;" edge="1" parent="1" source="v2RWW2FsGn21mNibex99-12" target="v2RWW2FsGn21mNibex99-48">
          <mxGeometry relative="1" as="geometry" />
        </mxCell>
        <mxCell id="v2RWW2FsGn21mNibex99-12" value="git add" style="whiteSpace=wrap;html=1;aspect=fixed;fillColor=#d5e8d4;strokeColor=#82b366;fontSize=18;shadow=0;strokeWidth=1;" vertex="1" parent="1">
          <mxGeometry x="520" y="200" width="80" height="80" as="geometry" />
        </mxCell>
        <mxCell id="v2RWW2FsGn21mNibex99-52" value="" style="edgeStyle=none;rounded=0;orthogonalLoop=1;jettySize=auto;html=1;shadow=0;fontSize=18;fillColor=#dae8fc;strokeColor=#000000;strokeWidth=1;" edge="1" parent="1" source="v2RWW2FsGn21mNibex99-13" target="v2RWW2FsGn21mNibex99-51">
          <mxGeometry relative="1" as="geometry" />
        </mxCell>
        <mxCell id="v2RWW2FsGn21mNibex99-13" value="git commit" style="whiteSpace=wrap;html=1;aspect=fixed;fillColor=#d5e8d4;strokeColor=#82b366;fontSize=18;shadow=0;strokeWidth=1;" vertex="1" parent="1">
          <mxGeometry x="760" y="200" width="80" height="80" as="geometry" />
        </mxCell>
        <mxCell id="v2RWW2FsGn21mNibex99-26" value="" style="edgeStyle=none;rounded=0;orthogonalLoop=1;jettySize=auto;html=1;fontSize=18;shadow=0;fillColor=#dae8fc;strokeColor=#000000;strokeWidth=1;" edge="1" parent="1" source="v2RWW2FsGn21mNibex99-14" target="v2RWW2FsGn21mNibex99-15">
          <mxGeometry relative="1" as="geometry" />
        </mxCell>
        <mxCell id="v2RWW2FsGn21mNibex99-14" value="git push" style="whiteSpace=wrap;html=1;aspect=fixed;fillColor=#d5e8d4;strokeColor=#82b366;fontSize=18;shadow=0;strokeWidth=1;" vertex="1" parent="1">
          <mxGeometry x="760" y="40" width="80" height="80" as="geometry" />
        </mxCell>
        <mxCell id="v2RWW2FsGn21mNibex99-70" value="" style="edgeStyle=none;rounded=0;orthogonalLoop=1;jettySize=auto;html=1;shadow=0;fontSize=18;fillColor=#dae8fc;strokeColor=#000000;strokeWidth=1;" edge="1" parent="1" source="v2RWW2FsGn21mNibex99-15" target="v2RWW2FsGn21mNibex99-69">
          <mxGeometry relative="1" as="geometry" />
        </mxCell>
        <mxCell id="v2RWW2FsGn21mNibex99-15" value="ssh" style="whiteSpace=wrap;html=1;aspect=fixed;fillColor=#d5e8d4;strokeColor=#293820;fontSize=18;shadow=0;strokeWidth=1;" vertex="1" parent="1">
          <mxGeometry x="640" y="40" width="80" height="80" as="geometry" />
        </mxCell>
        <mxCell id="v2RWW2FsGn21mNibex99-16" value="13.250.x.x" style="rhombus;whiteSpace=wrap;html=1;fillColor=#fff2cc;strokeColor=#080703;fontSize=18;shadow=0;strokeWidth=1;" vertex="1" parent="1">
          <mxGeometry x="880" y="840" width="80" height="80" as="geometry" />
        </mxCell>
        <mxCell id="v2RWW2FsGn21mNibex99-31" style="edgeStyle=none;rounded=0;orthogonalLoop=1;jettySize=auto;html=1;entryX=0.5;entryY=1;entryDx=0;entryDy=0;fontSize=18;shadow=0;fillColor=#dae8fc;strokeColor=#000000;strokeWidth=1;" edge="1" parent="1" source="v2RWW2FsGn21mNibex99-28" target="v2RWW2FsGn21mNibex99-6">
          <mxGeometry relative="1" as="geometry" />
        </mxCell>
        <mxCell id="v2RWW2FsGn21mNibex99-32" style="edgeStyle=none;rounded=0;orthogonalLoop=1;jettySize=auto;html=1;entryX=0.5;entryY=1;entryDx=0;entryDy=0;fontSize=18;shadow=0;fillColor=#dae8fc;strokeColor=#000000;strokeWidth=1;" edge="1" parent="1" source="v2RWW2FsGn21mNibex99-28" target="v2RWW2FsGn21mNibex99-7">
          <mxGeometry relative="1" as="geometry" />
        </mxCell>
        <mxCell id="v2RWW2FsGn21mNibex99-33" style="edgeStyle=none;rounded=0;orthogonalLoop=1;jettySize=auto;html=1;entryX=0.5;entryY=1;entryDx=0;entryDy=0;fontSize=18;shadow=0;fillColor=#dae8fc;strokeColor=#000000;strokeWidth=1;" edge="1" parent="1" source="v2RWW2FsGn21mNibex99-28" target="v2RWW2FsGn21mNibex99-8">
          <mxGeometry relative="1" as="geometry" />
        </mxCell>
        <mxCell id="v2RWW2FsGn21mNibex99-34" style="edgeStyle=none;rounded=0;orthogonalLoop=1;jettySize=auto;html=1;entryX=0.5;entryY=1;entryDx=0;entryDy=0;fontSize=18;shadow=0;fillColor=#dae8fc;strokeColor=#000000;strokeWidth=1;" edge="1" parent="1" source="v2RWW2FsGn21mNibex99-28" target="v2RWW2FsGn21mNibex99-9">
          <mxGeometry relative="1" as="geometry" />
        </mxCell>
        <mxCell id="v2RWW2FsGn21mNibex99-35" style="edgeStyle=none;rounded=0;orthogonalLoop=1;jettySize=auto;html=1;entryX=0.5;entryY=1;entryDx=0;entryDy=0;fontSize=18;shadow=0;fillColor=#dae8fc;strokeColor=#000000;strokeWidth=1;" edge="1" parent="1" source="v2RWW2FsGn21mNibex99-28" target="v2RWW2FsGn21mNibex99-10">
          <mxGeometry relative="1" as="geometry" />
        </mxCell>
        <mxCell id="v2RWW2FsGn21mNibex99-93" style="edgeStyle=none;rounded=0;orthogonalLoop=1;jettySize=auto;html=1;entryX=0.5;entryY=0;entryDx=0;entryDy=0;shadow=0;fontSize=18;fillColor=#dae8fc;strokeColor=#000000;strokeWidth=1;" edge="1" parent="1" source="v2RWW2FsGn21mNibex99-28" target="v2RWW2FsGn21mNibex99-76">
          <mxGeometry relative="1" as="geometry" />
        </mxCell>
        <mxCell id="v2RWW2FsGn21mNibex99-94" style="edgeStyle=none;rounded=0;orthogonalLoop=1;jettySize=auto;html=1;entryX=0.5;entryY=0;entryDx=0;entryDy=0;shadow=0;fontSize=18;fillColor=#dae8fc;strokeColor=#000000;strokeWidth=1;" edge="1" parent="1" source="v2RWW2FsGn21mNibex99-28" target="v2RWW2FsGn21mNibex99-79">
          <mxGeometry relative="1" as="geometry" />
        </mxCell>
        <mxCell id="v2RWW2FsGn21mNibex99-95" style="edgeStyle=none;rounded=0;orthogonalLoop=1;jettySize=auto;html=1;entryX=0.5;entryY=0;entryDx=0;entryDy=0;shadow=0;fontSize=18;fillColor=#dae8fc;strokeColor=#000000;strokeWidth=1;" edge="1" parent="1" source="v2RWW2FsGn21mNibex99-28" target="v2RWW2FsGn21mNibex99-78">
          <mxGeometry relative="1" as="geometry" />
        </mxCell>
        <mxCell id="v2RWW2FsGn21mNibex99-96" style="edgeStyle=none;rounded=0;orthogonalLoop=1;jettySize=auto;html=1;entryX=0.5;entryY=0;entryDx=0;entryDy=0;shadow=0;fontSize=18;fillColor=#dae8fc;strokeColor=#000000;strokeWidth=1;" edge="1" parent="1" source="v2RWW2FsGn21mNibex99-28" target="v2RWW2FsGn21mNibex99-77">
          <mxGeometry relative="1" as="geometry" />
        </mxCell>
        <mxCell id="v2RWW2FsGn21mNibex99-115" style="edgeStyle=none;rounded=0;orthogonalLoop=1;jettySize=auto;html=1;fontFamily=Helvetica;fontSize=18;fontColor=default;fillColor=#dae8fc;strokeColor=#000000;shadow=0;strokeWidth=1;" edge="1" parent="1" source="v2RWW2FsGn21mNibex99-28" target="v2RWW2FsGn21mNibex99-37">
          <mxGeometry relative="1" as="geometry" />
        </mxCell>
        <mxCell id="v2RWW2FsGn21mNibex99-28" value="bash" style="whiteSpace=wrap;html=1;aspect=fixed;fillColor=#d5e8d4;strokeColor=#82b366;fontSize=18;shadow=0;strokeWidth=1;" vertex="1" parent="1">
          <mxGeometry x="40" y="360" width="80" height="80" as="geometry" />
        </mxCell>
        <mxCell id="v2RWW2FsGn21mNibex99-30" value="" style="edgeStyle=none;rounded=0;orthogonalLoop=1;jettySize=auto;html=1;fontSize=18;shadow=0;fillColor=#dae8fc;strokeColor=#000000;strokeWidth=1;" edge="1" parent="1" source="v2RWW2FsGn21mNibex99-29" target="v2RWW2FsGn21mNibex99-28">
          <mxGeometry relative="1" as="geometry" />
        </mxCell>
        <mxCell id="v2RWW2FsGn21mNibex99-29" value="ssh" style="whiteSpace=wrap;html=1;aspect=fixed;fillColor=#d5e8d4;strokeColor=#82b366;fontSize=18;shadow=0;strokeWidth=1;" vertex="1" parent="1">
          <mxGeometry x="-80" y="360" width="80" height="80" as="geometry" />
        </mxCell>
        <mxCell id="v2RWW2FsGn21mNibex99-42" value="" style="edgeStyle=none;rounded=0;orthogonalLoop=1;jettySize=auto;html=1;fontSize=18;shadow=0;fillColor=#dae8fc;strokeColor=#000000;strokeWidth=1;" edge="1" parent="1" source="v2RWW2FsGn21mNibex99-37" target="v2RWW2FsGn21mNibex99-38">
          <mxGeometry relative="1" as="geometry" />
        </mxCell>
        <mxCell id="v2RWW2FsGn21mNibex99-68" value="" style="edgeStyle=none;rounded=0;orthogonalLoop=1;jettySize=auto;html=1;shadow=0;fontSize=18;fillColor=#dae8fc;strokeColor=#000000;strokeWidth=1;" edge="1" parent="1" source="v2RWW2FsGn21mNibex99-37" target="v2RWW2FsGn21mNibex99-67">
          <mxGeometry relative="1" as="geometry" />
        </mxCell>
        <mxCell id="v2RWW2FsGn21mNibex99-37" value="bash" style="whiteSpace=wrap;html=1;aspect=fixed;fillColor=#d5e8d4;strokeColor=#293820;fontSize=18;shadow=0;strokeWidth=1;" vertex="1" parent="1">
          <mxGeometry x="520" y="360" width="80" height="80" as="geometry" />
        </mxCell>
        <mxCell id="v2RWW2FsGn21mNibex99-43" value="" style="edgeStyle=none;rounded=0;orthogonalLoop=1;jettySize=auto;html=1;startArrow=classic;startFill=1;fontSize=18;shadow=0;fillColor=#dae8fc;strokeColor=#000000;strokeWidth=1;" edge="1" parent="1" source="v2RWW2FsGn21mNibex99-38" target="v2RWW2FsGn21mNibex99-40">
          <mxGeometry relative="1" as="geometry" />
        </mxCell>
        <mxCell id="v2RWW2FsGn21mNibex99-38" value="vim" style="whiteSpace=wrap;html=1;aspect=fixed;fillColor=#d5e8d4;strokeColor=#293820;fontSize=18;shadow=0;strokeWidth=1;" vertex="1" parent="1">
          <mxGeometry x="640" y="360" width="80" height="80" as="geometry" />
        </mxCell>
        <mxCell id="v2RWW2FsGn21mNibex99-45" style="edgeStyle=none;rounded=0;orthogonalLoop=1;jettySize=auto;html=1;entryX=0.5;entryY=0;entryDx=0;entryDy=0;fontSize=18;shadow=0;fillColor=#dae8fc;strokeColor=#000000;strokeWidth=1;" edge="1" parent="1" source="v2RWW2FsGn21mNibex99-39" target="v2RWW2FsGn21mNibex99-41">
          <mxGeometry relative="1" as="geometry" />
        </mxCell>
        <mxCell id="v2RWW2FsGn21mNibex99-39" value="tar" style="whiteSpace=wrap;html=1;aspect=fixed;fillColor=#d5e8d4;strokeColor=#293820;fontSize=18;shadow=0;strokeWidth=1;" vertex="1" parent="1">
          <mxGeometry x="760" y="360" width="80" height="80" as="geometry" />
        </mxCell>
        <mxCell id="v2RWW2FsGn21mNibex99-46" style="edgeStyle=none;rounded=0;orthogonalLoop=1;jettySize=auto;html=1;entryX=0;entryY=1;entryDx=0;entryDy=0;fontSize=18;shadow=0;fillColor=#dae8fc;strokeColor=#000000;strokeWidth=1;" edge="1" parent="1" source="v2RWW2FsGn21mNibex99-40" target="v2RWW2FsGn21mNibex99-39">
          <mxGeometry relative="1" as="geometry" />
        </mxCell>
        <mxCell id="v2RWW2FsGn21mNibex99-40" value="&lt;font style=&quot;font-size: 18px;&quot;&gt;Eva.doc&lt;/font&gt;" style="ellipse;whiteSpace=wrap;html=1;aspect=fixed;fillColor=#dae8fc;strokeColor=#000000;fontSize=18;shadow=0;strokeWidth=1;" vertex="1" parent="1">
          <mxGeometry x="640" y="520" width="80" height="80" as="geometry" />
        </mxCell>
        <mxCell id="v2RWW2FsGn21mNibex99-75" style="edgeStyle=none;rounded=0;orthogonalLoop=1;jettySize=auto;html=1;entryX=1;entryY=0;entryDx=0;entryDy=0;shadow=0;fontSize=18;fillColor=#dae8fc;strokeColor=#000000;strokeWidth=1;" edge="1" parent="1" source="v2RWW2FsGn21mNibex99-41" target="v2RWW2FsGn21mNibex99-57">
          <mxGeometry relative="1" as="geometry" />
        </mxCell>
        <mxCell id="v2RWW2FsGn21mNibex99-41" value="&lt;font style=&quot;font-size: 18px;&quot;&gt;Eva.tar&lt;/font&gt;" style="ellipse;whiteSpace=wrap;html=1;aspect=fixed;fillColor=#dae8fc;strokeColor=#000000;fontSize=18;shadow=0;strokeWidth=1;" vertex="1" parent="1">
          <mxGeometry x="760" y="520" width="80" height="80" as="geometry" />
        </mxCell>
        <mxCell id="v2RWW2FsGn21mNibex99-50" value="" style="edgeStyle=none;rounded=0;orthogonalLoop=1;jettySize=auto;html=1;shadow=0;fontSize=18;fillColor=#dae8fc;strokeColor=#000000;strokeWidth=1;" edge="1" parent="1" source="v2RWW2FsGn21mNibex99-48" target="v2RWW2FsGn21mNibex99-13">
          <mxGeometry relative="1" as="geometry" />
        </mxCell>
        <mxCell id="v2RWW2FsGn21mNibex99-48" value="" style="ellipse;whiteSpace=wrap;html=1;aspect=fixed;fillColor=#dae8fc;strokeColor=#000000;fontSize=18;shadow=0;strokeWidth=1;" vertex="1" parent="1">
          <mxGeometry x="640" y="200" width="80" height="80" as="geometry" />
        </mxCell>
        <mxCell id="v2RWW2FsGn21mNibex99-53" value="" style="edgeStyle=none;rounded=0;orthogonalLoop=1;jettySize=auto;html=1;shadow=0;fontSize=18;fillColor=#dae8fc;strokeColor=#000000;strokeWidth=1;" edge="1" parent="1" source="v2RWW2FsGn21mNibex99-51" target="v2RWW2FsGn21mNibex99-14">
          <mxGeometry relative="1" as="geometry" />
        </mxCell>
        <mxCell id="v2RWW2FsGn21mNibex99-51" value="" style="ellipse;whiteSpace=wrap;html=1;aspect=fixed;fillColor=#dae8fc;strokeColor=#000000;fontSize=18;shadow=0;strokeWidth=1;" vertex="1" parent="1">
          <mxGeometry x="880" y="200" width="80" height="80" as="geometry" />
        </mxCell>
        <mxCell id="v2RWW2FsGn21mNibex99-56" value="" style="edgeStyle=none;rounded=0;orthogonalLoop=1;jettySize=auto;html=1;shadow=0;fontSize=18;fillColor=#dae8fc;strokeColor=#000000;strokeWidth=1;" edge="1" parent="1" source="v2RWW2FsGn21mNibex99-57" target="v2RWW2FsGn21mNibex99-64">
          <mxGeometry relative="1" as="geometry" />
        </mxCell>
        <mxCell id="v2RWW2FsGn21mNibex99-57" value="git add" style="whiteSpace=wrap;html=1;aspect=fixed;fillColor=#d5e8d4;strokeColor=#293820;fontSize=18;shadow=0;strokeWidth=1;" vertex="1" parent="1">
          <mxGeometry x="520" y="680" width="80" height="80" as="geometry" />
        </mxCell>
        <mxCell id="v2RWW2FsGn21mNibex99-58" value="" style="edgeStyle=none;rounded=0;orthogonalLoop=1;jettySize=auto;html=1;shadow=0;fontSize=18;fillColor=#dae8fc;strokeColor=#000000;strokeWidth=1;" edge="1" parent="1" source="v2RWW2FsGn21mNibex99-59" target="v2RWW2FsGn21mNibex99-66">
          <mxGeometry relative="1" as="geometry" />
        </mxCell>
        <mxCell id="v2RWW2FsGn21mNibex99-59" value="git commit" style="whiteSpace=wrap;html=1;aspect=fixed;fillColor=#d5e8d4;strokeColor=#293820;fontSize=18;shadow=0;strokeWidth=1;" vertex="1" parent="1">
          <mxGeometry x="640" y="680" width="80" height="80" as="geometry" />
        </mxCell>
        <mxCell id="v2RWW2FsGn21mNibex99-60" value="" style="edgeStyle=none;rounded=0;orthogonalLoop=1;jettySize=auto;html=1;fontSize=18;shadow=0;fillColor=#dae8fc;strokeColor=#000000;strokeWidth=1;" edge="1" parent="1" source="v2RWW2FsGn21mNibex99-61" target="v2RWW2FsGn21mNibex99-62">
          <mxGeometry relative="1" as="geometry" />
        </mxCell>
        <mxCell id="v2RWW2FsGn21mNibex99-61" value="git push" style="whiteSpace=wrap;html=1;aspect=fixed;fillColor=#d5e8d4;strokeColor=#293820;fontSize=18;shadow=0;strokeWidth=1;" vertex="1" parent="1">
          <mxGeometry x="760" y="680" width="80" height="80" as="geometry" />
        </mxCell>
        <mxCell id="v2RWW2FsGn21mNibex99-71" value="" style="edgeStyle=none;rounded=0;orthogonalLoop=1;jettySize=auto;html=1;shadow=0;fontSize=18;fillColor=#dae8fc;strokeColor=#000000;strokeWidth=1;" edge="1" parent="1" source="v2RWW2FsGn21mNibex99-62" target="v2RWW2FsGn21mNibex99-16">
          <mxGeometry relative="1" as="geometry" />
        </mxCell>
        <mxCell id="v2RWW2FsGn21mNibex99-62" value="ssh" style="whiteSpace=wrap;html=1;aspect=fixed;fillColor=#d5e8d4;strokeColor=#293820;fontSize=18;shadow=0;strokeWidth=1;" vertex="1" parent="1">
          <mxGeometry x="880" y="680" width="80" height="80" as="geometry" />
        </mxCell>
        <mxCell id="v2RWW2FsGn21mNibex99-63" value="" style="edgeStyle=none;rounded=0;orthogonalLoop=1;jettySize=auto;html=1;shadow=0;fontSize=18;fillColor=#dae8fc;strokeColor=#000000;strokeWidth=1;" edge="1" parent="1" source="v2RWW2FsGn21mNibex99-64" target="v2RWW2FsGn21mNibex99-59">
          <mxGeometry relative="1" as="geometry" />
        </mxCell>
        <mxCell id="v2RWW2FsGn21mNibex99-64" value="" style="ellipse;whiteSpace=wrap;html=1;aspect=fixed;fillColor=#dae8fc;strokeColor=#000000;fontSize=18;shadow=0;strokeWidth=1;" vertex="1" parent="1">
          <mxGeometry x="520" y="840" width="80" height="80" as="geometry" />
        </mxCell>
        <mxCell id="v2RWW2FsGn21mNibex99-65" value="" style="edgeStyle=none;rounded=0;orthogonalLoop=1;jettySize=auto;html=1;shadow=0;fontSize=18;fillColor=#dae8fc;strokeColor=#000000;strokeWidth=1;" edge="1" parent="1" source="v2RWW2FsGn21mNibex99-66" target="v2RWW2FsGn21mNibex99-61">
          <mxGeometry relative="1" as="geometry" />
        </mxCell>
        <mxCell id="v2RWW2FsGn21mNibex99-66" value="" style="ellipse;whiteSpace=wrap;html=1;aspect=fixed;fillColor=#dae8fc;strokeColor=#000000;fontSize=18;shadow=0;strokeWidth=1;" vertex="1" parent="1">
          <mxGeometry x="640" y="840" width="80" height="80" as="geometry" />
        </mxCell>
        <mxCell id="v2RWW2FsGn21mNibex99-72" value="" style="edgeStyle=none;rounded=0;orthogonalLoop=1;jettySize=auto;html=1;shadow=0;fontSize=18;fillColor=#dae8fc;strokeColor=#000000;strokeWidth=1;" edge="1" parent="1" source="v2RWW2FsGn21mNibex99-67" target="v2RWW2FsGn21mNibex99-57">
          <mxGeometry relative="1" as="geometry" />
        </mxCell>
        <mxCell id="v2RWW2FsGn21mNibex99-73" style="edgeStyle=none;rounded=0;orthogonalLoop=1;jettySize=auto;html=1;entryX=0.5;entryY=0;entryDx=0;entryDy=0;shadow=0;fontSize=18;fillColor=#dae8fc;strokeColor=#000000;strokeWidth=1;" edge="1" parent="1" source="v2RWW2FsGn21mNibex99-67" target="v2RWW2FsGn21mNibex99-59">
          <mxGeometry relative="1" as="geometry" />
        </mxCell>
        <mxCell id="v2RWW2FsGn21mNibex99-74" style="edgeStyle=none;rounded=0;orthogonalLoop=1;jettySize=auto;html=1;entryX=0.5;entryY=0;entryDx=0;entryDy=0;shadow=0;fontSize=18;fillColor=#dae8fc;strokeColor=#000000;strokeWidth=1;" edge="1" parent="1" source="v2RWW2FsGn21mNibex99-67" target="v2RWW2FsGn21mNibex99-61">
          <mxGeometry relative="1" as="geometry" />
        </mxCell>
        <mxCell id="v2RWW2FsGn21mNibex99-67" value="bash" style="whiteSpace=wrap;html=1;aspect=fixed;fillColor=#d5e8d4;strokeColor=#293820;fontSize=18;shadow=0;strokeWidth=1;" vertex="1" parent="1">
          <mxGeometry x="520" y="520" width="80" height="80" as="geometry" />
        </mxCell>
        <mxCell id="v2RWW2FsGn21mNibex99-69" value="13.250.x.x" style="rhombus;whiteSpace=wrap;html=1;fillColor=#fff2cc;strokeColor=#080703;fontSize=18;shadow=0;strokeWidth=1;" vertex="1" parent="1">
          <mxGeometry x="520" y="40" width="80" height="80" as="geometry" />
        </mxCell>
        <mxCell id="v2RWW2FsGn21mNibex99-76" value="vim" style="whiteSpace=wrap;html=1;aspect=fixed;fillColor=#d5e8d4;strokeColor=#82b366;fontSize=18;shadow=0;strokeWidth=1;" vertex="1" parent="1">
          <mxGeometry x="-80" y="520" width="80" height="80" as="geometry" />
        </mxCell>
        <mxCell id="v2RWW2FsGn21mNibex99-97" style="edgeStyle=none;rounded=0;orthogonalLoop=1;jettySize=auto;html=1;entryX=0.5;entryY=0;entryDx=0;entryDy=0;shadow=0;fontSize=18;fillColor=#dae8fc;strokeColor=#000000;strokeWidth=1;" edge="1" parent="1" source="v2RWW2FsGn21mNibex99-77" target="v2RWW2FsGn21mNibex99-84">
          <mxGeometry relative="1" as="geometry" />
        </mxCell>
        <mxCell id="v2RWW2FsGn21mNibex99-98" style="edgeStyle=none;rounded=0;orthogonalLoop=1;jettySize=auto;html=1;entryX=0.5;entryY=0;entryDx=0;entryDy=0;shadow=0;fontSize=18;fillColor=#dae8fc;strokeColor=#000000;strokeWidth=1;" edge="1" parent="1" source="v2RWW2FsGn21mNibex99-77" target="v2RWW2FsGn21mNibex99-85">
          <mxGeometry relative="1" as="geometry" />
        </mxCell>
        <mxCell id="v2RWW2FsGn21mNibex99-99" style="edgeStyle=orthogonalEdgeStyle;rounded=0;orthogonalLoop=1;jettySize=auto;html=1;entryX=0.5;entryY=0;entryDx=0;entryDy=0;curved=1;shadow=0;fontSize=18;fillColor=#dae8fc;strokeColor=#000000;strokeWidth=1;" edge="1" parent="1" source="v2RWW2FsGn21mNibex99-77" target="v2RWW2FsGn21mNibex99-86">
          <mxGeometry relative="1" as="geometry">
            <Array as="points">
              <mxPoint x="80" y="630" />
              <mxPoint x="320" y="630" />
            </Array>
          </mxGeometry>
        </mxCell>
        <mxCell id="v2RWW2FsGn21mNibex99-77" value="gcc" style="whiteSpace=wrap;html=1;aspect=fixed;fillColor=#d5e8d4;strokeColor=#82b366;fontSize=18;shadow=0;strokeWidth=1;" vertex="1" parent="1">
          <mxGeometry x="40" y="520" width="80" height="80" as="geometry" />
        </mxCell>
        <mxCell id="v2RWW2FsGn21mNibex99-78" value="ls" style="whiteSpace=wrap;html=1;aspect=fixed;fillColor=#d5e8d4;strokeColor=#293820;fontSize=18;shadow=0;strokeWidth=1;" vertex="1" parent="1">
          <mxGeometry x="160" y="520" width="80" height="80" as="geometry" />
        </mxCell>
        <mxCell id="v2RWW2FsGn21mNibex99-79" value="a.out" style="whiteSpace=wrap;html=1;aspect=fixed;fillColor=#d5e8d4;strokeColor=#293820;fontSize=18;shadow=0;strokeWidth=1;" vertex="1" parent="1">
          <mxGeometry x="280" y="520" width="80" height="80" as="geometry" />
        </mxCell>
        <mxCell id="v2RWW2FsGn21mNibex99-103" style="edgeStyle=none;rounded=0;orthogonalLoop=1;jettySize=auto;html=1;entryX=0;entryY=0.5;entryDx=0;entryDy=0;shadow=0;fontSize=18;fillColor=#dae8fc;strokeColor=#000000;strokeWidth=1;" edge="1" parent="1" source="v2RWW2FsGn21mNibex99-83" target="v2RWW2FsGn21mNibex99-84">
          <mxGeometry relative="1" as="geometry" />
        </mxCell>
        <mxCell id="v2RWW2FsGn21mNibex99-109" style="edgeStyle=orthogonalEdgeStyle;rounded=0;orthogonalLoop=1;jettySize=auto;html=1;entryX=0;entryY=0.5;entryDx=0;entryDy=0;curved=1;shadow=0;fontSize=18;fillColor=#dae8fc;strokeColor=#000000;strokeWidth=1;" edge="1" parent="1" source="v2RWW2FsGn21mNibex99-83" target="v2RWW2FsGn21mNibex99-57">
          <mxGeometry relative="1" as="geometry">
            <Array as="points">
              <mxPoint x="-130" y="720" />
              <mxPoint x="-130" y="970" />
              <mxPoint x="460" y="970" />
              <mxPoint x="460" y="720" />
            </Array>
          </mxGeometry>
        </mxCell>
        <mxCell id="v2RWW2FsGn21mNibex99-83" value="&lt;font style=&quot;font-size: 18px;&quot;&gt;Pro1.c&lt;/font&gt;" style="ellipse;whiteSpace=wrap;html=1;aspect=fixed;fillColor=#dae8fc;strokeColor=#000000;fontSize=18;shadow=0;strokeWidth=1;" vertex="1" parent="1">
          <mxGeometry x="-80" y="680" width="80" height="80" as="geometry" />
        </mxCell>
        <mxCell id="v2RWW2FsGn21mNibex99-105" style="edgeStyle=none;rounded=0;orthogonalLoop=1;jettySize=auto;html=1;entryX=1;entryY=0;entryDx=0;entryDy=0;shadow=0;fontSize=18;fillColor=#dae8fc;strokeColor=#000000;strokeWidth=1;" edge="1" parent="1" source="v2RWW2FsGn21mNibex99-84" target="v2RWW2FsGn21mNibex99-89">
          <mxGeometry relative="1" as="geometry" />
        </mxCell>
        <mxCell id="v2RWW2FsGn21mNibex99-84" value="cc1" style="whiteSpace=wrap;html=1;aspect=fixed;fillColor=#d5e8d4;strokeColor=#293820;fontSize=18;shadow=0;strokeWidth=1;" vertex="1" parent="1">
          <mxGeometry x="40" y="680" width="80" height="80" as="geometry" />
        </mxCell>
        <mxCell id="v2RWW2FsGn21mNibex99-102" style="edgeStyle=none;rounded=0;orthogonalLoop=1;jettySize=auto;html=1;entryX=1;entryY=0;entryDx=0;entryDy=0;shadow=0;fontSize=18;fillColor=#dae8fc;strokeColor=#000000;strokeWidth=1;" edge="1" parent="1" source="v2RWW2FsGn21mNibex99-85" target="v2RWW2FsGn21mNibex99-90">
          <mxGeometry relative="1" as="geometry" />
        </mxCell>
        <mxCell id="v2RWW2FsGn21mNibex99-85" value="as" style="whiteSpace=wrap;html=1;aspect=fixed;fillColor=#d5e8d4;strokeColor=#293820;fontSize=18;shadow=0;strokeWidth=1;" vertex="1" parent="1">
          <mxGeometry x="160" y="680" width="80" height="80" as="geometry" />
        </mxCell>
        <mxCell id="v2RWW2FsGn21mNibex99-100" style="edgeStyle=none;rounded=0;orthogonalLoop=1;jettySize=auto;html=1;entryX=0.5;entryY=0;entryDx=0;entryDy=0;shadow=0;fontSize=18;fillColor=#dae8fc;strokeColor=#000000;strokeWidth=1;" edge="1" parent="1" source="v2RWW2FsGn21mNibex99-86" target="v2RWW2FsGn21mNibex99-91">
          <mxGeometry relative="1" as="geometry" />
        </mxCell>
        <mxCell id="v2RWW2FsGn21mNibex99-86" value="collect2" style="whiteSpace=wrap;html=1;aspect=fixed;fillColor=#d5e8d4;strokeColor=#293820;fontSize=18;shadow=0;strokeWidth=1;" vertex="1" parent="1">
          <mxGeometry x="280" y="680" width="80" height="80" as="geometry" />
        </mxCell>
        <mxCell id="v2RWW2FsGn21mNibex99-106" style="edgeStyle=none;rounded=0;orthogonalLoop=1;jettySize=auto;html=1;entryX=0;entryY=1;entryDx=0;entryDy=0;shadow=0;fontSize=18;fillColor=#dae8fc;strokeColor=#000000;strokeWidth=1;" edge="1" parent="1" source="v2RWW2FsGn21mNibex99-89" target="v2RWW2FsGn21mNibex99-85">
          <mxGeometry relative="1" as="geometry" />
        </mxCell>
        <mxCell id="v2RWW2FsGn21mNibex99-89" value="" style="ellipse;whiteSpace=wrap;html=1;aspect=fixed;fillColor=#dae8fc;strokeColor=#000000;fontSize=18;shadow=0;strokeWidth=1;" vertex="1" parent="1">
          <mxGeometry x="-80" y="840" width="80" height="80" as="geometry" />
        </mxCell>
        <mxCell id="v2RWW2FsGn21mNibex99-101" value="" style="edgeStyle=none;rounded=0;orthogonalLoop=1;jettySize=auto;html=1;shadow=0;fontSize=18;fillColor=#dae8fc;strokeColor=#000000;strokeWidth=1;" edge="1" parent="1" source="v2RWW2FsGn21mNibex99-90" target="v2RWW2FsGn21mNibex99-91">
          <mxGeometry relative="1" as="geometry" />
        </mxCell>
        <mxCell id="v2RWW2FsGn21mNibex99-90" value="" style="ellipse;whiteSpace=wrap;html=1;aspect=fixed;fillColor=#dae8fc;strokeColor=#000000;fontSize=18;shadow=0;strokeWidth=1;" vertex="1" parent="1">
          <mxGeometry x="40" y="840" width="80" height="80" as="geometry" />
        </mxCell>
        <mxCell id="v2RWW2FsGn21mNibex99-107" style="edgeStyle=none;rounded=0;orthogonalLoop=1;jettySize=auto;html=1;exitX=1;exitY=0.5;exitDx=0;exitDy=0;entryX=0;entryY=0.5;entryDx=0;entryDy=0;shadow=0;fontSize=18;fillColor=#dae8fc;strokeColor=#000000;strokeWidth=1;" edge="1" parent="1" source="v2RWW2FsGn21mNibex99-91" target="v2RWW2FsGn21mNibex99-92">
          <mxGeometry relative="1" as="geometry" />
        </mxCell>
        <mxCell id="v2RWW2FsGn21mNibex99-91" value="ld" style="whiteSpace=wrap;html=1;aspect=fixed;fillColor=#d5e8d4;strokeColor=#293820;fontSize=18;shadow=0;strokeWidth=1;" vertex="1" parent="1">
          <mxGeometry x="160" y="840" width="80" height="80" as="geometry" />
        </mxCell>
        <mxCell id="v2RWW2FsGn21mNibex99-108" style="edgeStyle=orthogonalEdgeStyle;rounded=0;orthogonalLoop=1;jettySize=auto;html=1;entryX=1;entryY=1;entryDx=0;entryDy=0;curved=1;shadow=0;fontSize=18;fillColor=#dae8fc;strokeColor=#000000;strokeWidth=1;" edge="1" parent="1" source="v2RWW2FsGn21mNibex99-92" target="v2RWW2FsGn21mNibex99-79">
          <mxGeometry relative="1" as="geometry">
            <Array as="points">
              <mxPoint x="400" y="880" />
              <mxPoint x="400" y="600" />
            </Array>
          </mxGeometry>
        </mxCell>
        <mxCell id="v2RWW2FsGn21mNibex99-92" value="a.out" style="ellipse;whiteSpace=wrap;html=1;aspect=fixed;fillColor=#dae8fc;strokeColor=#000000;fontSize=18;shadow=0;strokeWidth=1;" vertex="1" parent="1">
          <mxGeometry x="280" y="840" width="80" height="80" as="geometry" />
        </mxCell>
        <mxCell id="v2RWW2FsGn21mNibex99-118" value="git push" style="whiteSpace=wrap;html=1;aspect=fixed;fillColor=#d5e8d4;strokeColor=#293820;fontSize=18;shadow=0;strokeWidth=1;" vertex="1" parent="1">
          <mxGeometry x="760" y="40" width="80" height="80" as="geometry" />
        </mxCell>
        <mxCell id="v2RWW2FsGn21mNibex99-119" value="git commit" style="whiteSpace=wrap;html=1;aspect=fixed;fillColor=#d5e8d4;strokeColor=#293820;fontSize=18;shadow=0;strokeWidth=1;" vertex="1" parent="1">
          <mxGeometry x="760" y="200" width="80" height="80" as="geometry" />
        </mxCell>
        <mxCell id="v2RWW2FsGn21mNibex99-120" value="git add" style="whiteSpace=wrap;html=1;aspect=fixed;fillColor=#d5e8d4;strokeColor=#293820;fontSize=18;shadow=0;strokeWidth=1;" vertex="1" parent="1">
          <mxGeometry x="520" y="200" width="80" height="80" as="geometry" />
        </mxCell>
        <mxCell id="v2RWW2FsGn21mNibex99-121" value="bash" style="whiteSpace=wrap;html=1;aspect=fixed;fillColor=#d5e8d4;strokeColor=#293820;fontSize=18;shadow=0;strokeWidth=1;" vertex="1" parent="1">
          <mxGeometry x="400" y="200" width="80" height="80" as="geometry" />
        </mxCell>
        <mxCell id="v2RWW2FsGn21mNibex99-122" value="cc1" style="whiteSpace=wrap;html=1;aspect=fixed;fillColor=#d5e8d4;strokeColor=#293820;fontSize=18;shadow=0;strokeWidth=1;" vertex="1" parent="1">
          <mxGeometry x="280" y="40" width="80" height="80" as="geometry" />
        </mxCell>
        <mxCell id="v2RWW2FsGn21mNibex99-123" value="gcc" style="whiteSpace=wrap;html=1;aspect=fixed;fillColor=#d5e8d4;strokeColor=#293820;fontSize=18;shadow=0;strokeWidth=1;" vertex="1" parent="1">
          <mxGeometry x="280" y="200" width="80" height="80" as="geometry" />
        </mxCell>
        <mxCell id="v2RWW2FsGn21mNibex99-124" value="cp" style="whiteSpace=wrap;html=1;aspect=fixed;fillColor=#d5e8d4;strokeColor=#293820;fontSize=18;shadow=0;strokeWidth=1;" vertex="1" parent="1">
          <mxGeometry x="160" y="200" width="80" height="80" as="geometry" />
        </mxCell>
        <mxCell id="v2RWW2FsGn21mNibex99-125" value="cat" style="whiteSpace=wrap;html=1;aspect=fixed;fillColor=#d5e8d4;strokeColor=#293820;fontSize=18;shadow=0;strokeWidth=1;" vertex="1" parent="1">
          <mxGeometry x="40" y="200" width="80" height="80" as="geometry" />
        </mxCell>
        <mxCell id="v2RWW2FsGn21mNibex99-126" value="ls" style="whiteSpace=wrap;html=1;aspect=fixed;fillColor=#d5e8d4;strokeColor=#293820;fontSize=18;shadow=0;strokeWidth=1;" vertex="1" parent="1">
          <mxGeometry x="-80" y="200" width="80" height="80" as="geometry" />
        </mxCell>
        <mxCell id="v2RWW2FsGn21mNibex99-127" value="ssh" style="whiteSpace=wrap;html=1;aspect=fixed;fillColor=#d5e8d4;strokeColor=#293820;fontSize=18;shadow=0;strokeWidth=1;" vertex="1" parent="1">
          <mxGeometry x="-80" y="360" width="80" height="80" as="geometry" />
        </mxCell>
        <mxCell id="v2RWW2FsGn21mNibex99-128" value="bash" style="whiteSpace=wrap;html=1;aspect=fixed;fillColor=#d5e8d4;strokeColor=#293820;fontSize=18;shadow=0;strokeWidth=1;" vertex="1" parent="1">
          <mxGeometry x="40" y="360" width="80" height="80" as="geometry" />
        </mxCell>
        <mxCell id="v2RWW2FsGn21mNibex99-129" value="vim" style="whiteSpace=wrap;html=1;aspect=fixed;fillColor=#d5e8d4;strokeColor=#293820;fontSize=18;shadow=0;strokeWidth=1;" vertex="1" parent="1">
          <mxGeometry x="-80" y="520" width="80" height="80" as="geometry" />
        </mxCell>
        <mxCell id="v2RWW2FsGn21mNibex99-130" value="gcc" style="whiteSpace=wrap;html=1;aspect=fixed;fillColor=#d5e8d4;strokeColor=#293820;fontSize=18;shadow=0;strokeWidth=1;" vertex="1" parent="1">
          <mxGeometry x="40" y="520" width="80" height="80" as="geometry" />
        </mxCell>
        <mxCell id="v2RWW2FsGn21mNibex99-163" value="" style="rounded=0;whiteSpace=wrap;html=1;shadow=0;strokeWidth=2;fontFamily=Helvetica;fontSize=18;" vertex="1" parent="1">
          <mxGeometry x="-160" y="1040" width="560" height="80" as="geometry" />
        </mxCell>
        <mxCell id="v2RWW2FsGn21mNibex99-164" value="" style="ellipse;whiteSpace=wrap;html=1;aspect=fixed;fillColor=#dae8fc;strokeColor=#000000;fontSize=18;shadow=0;strokeWidth=1;" vertex="1" parent="1">
          <mxGeometry x="-140" y="1060" width="40" height="40" as="geometry" />
        </mxCell>
        <mxCell id="v2RWW2FsGn21mNibex99-165" value="" style="whiteSpace=wrap;html=1;aspect=fixed;fillColor=#d5e8d4;strokeColor=#293820;fontSize=18;shadow=0;strokeWidth=1;" vertex="1" parent="1">
          <mxGeometry x="-30" y="1060" width="40" height="40" as="geometry" />
        </mxCell>
        <mxCell id="v2RWW2FsGn21mNibex99-166" value="" style="rhombus;whiteSpace=wrap;html=1;fillColor=#fff2cc;strokeColor=#080703;fontSize=18;shadow=0;strokeWidth=1;" vertex="1" parent="1">
          <mxGeometry x="120" y="1060" width="40" height="40" as="geometry" />
        </mxCell>
        <mxCell id="v2RWW2FsGn21mNibex99-167" value="" style="endArrow=classic;html=1;rounded=0;fontFamily=Helvetica;fontSize=18;fontColor=default;" edge="1" parent="1">
          <mxGeometry width="50" height="50" relative="1" as="geometry">
            <mxPoint x="260" y="1100" as="sourcePoint" />
            <mxPoint x="300" y="1060" as="targetPoint" />
          </mxGeometry>
        </mxCell>
        <mxCell id="v2RWW2FsGn21mNibex99-169" value="Data flow" style="text;html=1;align=center;verticalAlign=middle;resizable=0;points=[];autosize=1;strokeColor=none;fillColor=none;fontSize=18;fontFamily=Helvetica;fontColor=default;" vertex="1" parent="1">
          <mxGeometry x="300" y="1060" width="100" height="40" as="geometry" />
        </mxCell>
        <mxCell id="v2RWW2FsGn21mNibex99-170" value="Socket" style="text;html=1;align=center;verticalAlign=middle;resizable=0;points=[];autosize=1;strokeColor=none;fillColor=none;fontSize=18;fontFamily=Helvetica;fontColor=default;" vertex="1" parent="1">
          <mxGeometry x="160" y="1060" width="80" height="40" as="geometry" />
        </mxCell>
        <mxCell id="v2RWW2FsGn21mNibex99-171" value="Process" style="text;html=1;align=center;verticalAlign=middle;resizable=0;points=[];autosize=1;strokeColor=none;fillColor=none;fontSize=18;fontFamily=Helvetica;fontColor=default;" vertex="1" parent="1">
          <mxGeometry x="10" y="1060" width="90" height="40" as="geometry" />
        </mxCell>
        <mxCell id="v2RWW2FsGn21mNibex99-172" value="File" style="text;html=1;align=center;verticalAlign=middle;resizable=0;points=[];autosize=1;strokeColor=none;fillColor=none;fontSize=18;fontFamily=Helvetica;fontColor=default;" vertex="1" parent="1">
          <mxGeometry x="-100" y="1060" width="50" height="40" as="geometry" />
        </mxCell>
        <mxCell id="v2RWW2FsGn21mNibex99-175" value="&lt;font style=&quot;font-size: 25px;&quot;&gt;&lt;b&gt;Git submission&lt;/b&gt;&lt;/font&gt;" style="text;html=1;align=center;verticalAlign=middle;resizable=0;points=[];autosize=1;strokeColor=none;fillColor=none;fontSize=18;fontFamily=Helvetica;fontColor=default;" vertex="1" parent="1">
          <mxGeometry x="505" y="970" width="200" height="40" as="geometry" />
        </mxCell>
        <mxCell id="v2RWW2FsGn21mNibex99-176" value="&lt;font style=&quot;font-size: 25px;&quot;&gt;&lt;b&gt;Data exfiltration&lt;/b&gt;&lt;/font&gt;" style="text;html=1;align=center;verticalAlign=middle;resizable=0;points=[];autosize=1;strokeColor=none;fillColor=none;fontSize=18;fontFamily=Helvetica;fontColor=default;" vertex="1" parent="1">
          <mxGeometry x="-155" y="300" width="210" height="40" as="geometry" />
        </mxCell>
        <mxCell id="v2RWW2FsGn21mNibex99-174" value="&lt;font style=&quot;font-size: 25px;&quot;&gt;&lt;b&gt;Program compilation and upload&lt;/b&gt;&lt;/font&gt;" style="text;html=1;align=center;verticalAlign=middle;resizable=0;points=[];autosize=1;strokeColor=none;fillColor=none;fontSize=18;fontFamily=Helvetica;fontColor=default;" vertex="1" parent="1">
          <mxGeometry x="-160" y="970" width="410" height="40" as="geometry" />
        </mxCell>
      </root>
    </mxGraphModel>
  </diagram>
</mxfile>
